<?xml version="1.0" encoding="UTF-8" standalone="no"?>
<svg
   xmlns:dc="http://purl.org/dc/elements/1.1/"
   xmlns:cc="http://creativecommons.org/ns#"
   xmlns:rdf="http://www.w3.org/1999/02/22-rdf-syntax-ns#"
   xmlns:svg="http://www.w3.org/2000/svg"
   xmlns="http://www.w3.org/2000/svg"
   viewBox="0 0 816 1056"
   height="1056"
   width="816"
   xml:space="preserve"
   id="svg2"
   version="1.1"><metadata
     id="metadata8"><rdf:RDF><cc:Work
         rdf:about=""><dc:format>image/svg+xml</dc:format><dc:type
           rdf:resource="http://purl.org/dc/dcmitype/StillImage" /></cc:Work></rdf:RDF></metadata><defs
     id="defs6"><radialGradient
       id="radialGradient50"
       spreadMethod="pad"
       gradientTransform="matrix(1259.3035,-115.14513,-140.9511,-1225.3629,-102.52246,219.12012)"
       gradientUnits="userSpaceOnUse"
       r="1"
       cy="0"
       cx="0"
       fy="0"
       fx="0"><stop
         id="stop24"
         offset="0"
         style="stop-opacity:1;stop-color:#e9f0f5" /><stop
         id="stop26"
         offset="0.0983582"
         style="stop-opacity:1;stop-color:#e9f0f5" /><stop
         id="stop28"
         offset="0.184433"
         style="stop-opacity:1;stop-color:#a3c0d5" /><stop
         id="stop30"
         offset="0.233612"
         style="stop-opacity:1;stop-color:#687988" /><stop
         id="stop32"
         offset="0.278687"
         style="stop-opacity:1;stop-color:#4a5769" /><stop
         id="stop34"
         offset="0.368851"
         style="stop-opacity:1;stop-color:#d5e2ec" /><stop
         id="stop36"
         offset="0.442627"
         style="stop-opacity:1;stop-color:#e9f0f5" /><stop
         id="stop38"
         offset="0.53688"
         style="stop-opacity:1;stop-color:#ffffff" /><stop
         id="stop40"
         offset="0.602463"
         style="stop-opacity:1;stop-color:#a3c0d5" /><stop
         id="stop42"
         offset="0.66803"
         style="stop-opacity:1;stop-color:#4a5769" /><stop
         id="stop44"
         offset="0.75"
         style="stop-opacity:1;stop-color:#a3c0d5" /><stop
         id="stop46"
         offset="0.827866"
         style="stop-opacity:1;stop-color:#688998" /><stop
         id="stop48"
         offset="1"
         style="stop-opacity:1;stop-color:#a3c0d5" /></radialGradient><linearGradient
       id="linearGradient92"
       spreadMethod="pad"
       gradientTransform="matrix(-28.127823,-725.68414,-725.68414,28.127838,318.6416,699.56689)"
       gradientUnits="userSpaceOnUse"
       y2="0"
       x2="1"
       y1="0"
       x1="0"><stop
         id="stop66"
         offset="0"
         style="stop-opacity:1;stop-color:#e9f0f5" /><stop
         id="stop68"
         offset="0.0204926"
         style="stop-opacity:1;stop-color:#e9f0f5" /><stop
         id="stop70"
         offset="0.143448"
         style="stop-opacity:1;stop-color:#a3c0d5" /><stop
         id="stop72"
         offset="0.233612"
         style="stop-opacity:1;stop-color:#687988" /><stop
         id="stop74"
         offset="0.303284"
         style="stop-opacity:1;stop-color:#4a5769" /><stop
         id="stop76"
         offset="0.434433"
         style="stop-opacity:1;stop-color:#d5e2ec" /><stop
         id="stop78"
         offset="0.483612"
         style="stop-opacity:1;stop-color:#e9f0f5" /><stop
         id="stop80"
         offset="0.53688"
         style="stop-opacity:1;stop-color:#ffffff" /><stop
         id="stop82"
         offset="0.655731"
         style="stop-opacity:1;stop-color:#d3e2ec" /><stop
         id="stop84"
         offset="0.75"
         style="stop-opacity:1;stop-color:#a3c0d5" /><stop
         id="stop86"
         offset="0.827866"
         style="stop-opacity:1;stop-color:#688998" /><stop
         id="stop88"
         offset="0.885239"
         style="stop-opacity:1;stop-color:#a3c0d5" /><stop
         id="stop90"
         offset="1"
         style="stop-opacity:1;stop-color:#a3c0d5" /></linearGradient><radialGradient
       id="radialGradient134"
       spreadMethod="pad"
       gradientTransform="matrix(970.47278,-167.16695,1.8963165,-1020.9437,357.79102,94.056641)"
       gradientUnits="userSpaceOnUse"
       r="1"
       cy="0"
       cx="0"
       fy="0"
       fx="0"><stop
         id="stop108"
         offset="0"
         style="stop-opacity:1;stop-color:#e9f0f5" /><stop
         id="stop110"
         offset="0.0983582"
         style="stop-opacity:1;stop-color:#e9f0f5" /><stop
         id="stop112"
         offset="0.184433"
         style="stop-opacity:1;stop-color:#a3c0d5" /><stop
         id="stop114"
         offset="0.233612"
         style="stop-opacity:1;stop-color:#687988" /><stop
         id="stop116"
         offset="0.278687"
         style="stop-opacity:1;stop-color:#4a5769" /><stop
         id="stop118"
         offset="0.368851"
         style="stop-opacity:1;stop-color:#d5e2ec" /><stop
         id="stop120"
         offset="0.442627"
         style="stop-opacity:1;stop-color:#e9f0f5" /><stop
         id="stop122"
         offset="0.53688"
         style="stop-opacity:1;stop-color:#ffffff" /><stop
         id="stop124"
         offset="0.602463"
         style="stop-opacity:1;stop-color:#a3c0d5" /><stop
         id="stop126"
         offset="0.66803"
         style="stop-opacity:1;stop-color:#4a5769" /><stop
         id="stop128"
         offset="0.75"
         style="stop-opacity:1;stop-color:#a3c0d5" /><stop
         id="stop130"
         offset="0.827866"
         style="stop-opacity:1;stop-color:#688998" /><stop
         id="stop132"
         offset="1"
         style="stop-opacity:1;stop-color:#a3c0d5" /></radialGradient><radialGradient
       id="radialGradient176"
       spreadMethod="pad"
       gradientTransform="matrix(529.39545,-91.190002,1.0344391,-556.92749,118.10352,214.11035)"
       gradientUnits="userSpaceOnUse"
       r="1"
       cy="0"
       cx="0"
       fy="0"
       fx="0"><stop
         id="stop150"
         offset="0"
         style="stop-opacity:1;stop-color:#a8bcc5" /><stop
         id="stop152"
         offset="0.0532837"
         style="stop-opacity:1;stop-color:#a3c0d5" /><stop
         id="stop154"
         offset="0.0860596"
         style="stop-opacity:1;stop-color:#687988" /><stop
         id="stop156"
         offset="0.143448"
         style="stop-opacity:1;stop-color:#4a5769" /><stop
         id="stop158"
         offset="0.204926"
         style="stop-opacity:1;stop-color:#a3c0d5" /><stop
         id="stop160"
         offset="0.270493"
         style="stop-opacity:1;stop-color:#d5e2ec" /><stop
         id="stop162"
         offset="0.327866"
         style="stop-opacity:1;stop-color:#e9f0f5" /><stop
         id="stop164"
         offset="0.53688"
         style="stop-opacity:1;stop-color:#ffffff" /><stop
         id="stop166"
         offset="0.655731"
         style="stop-opacity:1;stop-color:#d3e2ec" /><stop
         id="stop168"
         offset="0.75"
         style="stop-opacity:1;stop-color:#a3c0d5" /><stop
         id="stop170"
         offset="0.827866"
         style="stop-opacity:1;stop-color:#688998" /><stop
         id="stop172"
         offset="0.885239"
         style="stop-opacity:1;stop-color:#a3c0d5" /><stop
         id="stop174"
         offset="1"
         style="stop-opacity:1;stop-color:#a3c0d5" /></radialGradient><linearGradient
       id="linearGradient218"
       spreadMethod="pad"
       gradientTransform="matrix(-445.85761,-281.61279,-207.5444,530.12561,502.12109,508.33057)"
       gradientUnits="userSpaceOnUse"
       y2="0"
       x2="1"
       y1="0"
       x1="0"><stop
         id="stop192"
         offset="0"
         style="stop-opacity:1;stop-color:#a8bcc5" /><stop
         id="stop194"
         offset="0.0532837"
         style="stop-opacity:1;stop-color:#a3c0d5" /><stop
         id="stop196"
         offset="0.0860596"
         style="stop-opacity:1;stop-color:#687988" /><stop
         id="stop198"
         offset="0.143448"
         style="stop-opacity:1;stop-color:#4a5769" /><stop
         id="stop200"
         offset="0.204926"
         style="stop-opacity:1;stop-color:#a3c0d5" /><stop
         id="stop202"
         offset="0.270493"
         style="stop-opacity:1;stop-color:#d5e2ec" /><stop
         id="stop204"
         offset="0.327866"
         style="stop-opacity:1;stop-color:#e9f0f5" /><stop
         id="stop206"
         offset="0.53688"
         style="stop-opacity:1;stop-color:#ffffff" /><stop
         id="stop208"
         offset="0.655731"
         style="stop-opacity:1;stop-color:#d3e2ec" /><stop
         id="stop210"
         offset="0.75"
         style="stop-opacity:1;stop-color:#a3c0d5" /><stop
         id="stop212"
         offset="0.827866"
         style="stop-opacity:1;stop-color:#688998" /><stop
         id="stop214"
         offset="0.885239"
         style="stop-opacity:1;stop-color:#a3c0d5" /><stop
         id="stop216"
         offset="1"
         style="stop-opacity:1;stop-color:#a3c0d5" /></linearGradient><radialGradient
       id="radialGradient260"
       spreadMethod="pad"
       gradientTransform="matrix(294.66797,-26.94313,-32.981537,-286.72614,572.85352,542.67871)"
       gradientUnits="userSpaceOnUse"
       r="1"
       cy="0"
       cx="0"
       fy="0"
       fx="0"><stop
         id="stop234"
         offset="0"
         style="stop-opacity:1;stop-color:#a8bcc5" /><stop
         id="stop236"
         offset="0.0532837"
         style="stop-opacity:1;stop-color:#a3c0d5" /><stop
         id="stop238"
         offset="0.0860596"
         style="stop-opacity:1;stop-color:#687988" /><stop
         id="stop240"
         offset="0.143448"
         style="stop-opacity:1;stop-color:#4a5769" /><stop
         id="stop242"
         offset="0.204926"
         style="stop-opacity:1;stop-color:#a3c0d5" /><stop
         id="stop244"
         offset="0.270493"
         style="stop-opacity:1;stop-color:#d5e2ec" /><stop
         id="stop246"
         offset="0.327866"
         style="stop-opacity:1;stop-color:#e9f0f5" /><stop
         id="stop248"
         offset="0.53688"
         style="stop-opacity:1;stop-color:#ffffff" /><stop
         id="stop250"
         offset="0.655731"
         style="stop-opacity:1;stop-color:#d3e2ec" /><stop
         id="stop252"
         offset="0.75"
         style="stop-opacity:1;stop-color:#a3c0d5" /><stop
         id="stop254"
         offset="0.827866"
         style="stop-opacity:1;stop-color:#688998" /><stop
         id="stop256"
         offset="0.885239"
         style="stop-opacity:1;stop-color:#a3c0d5" /><stop
         id="stop258"
         offset="1"
         style="stop-opacity:1;stop-color:#a3c0d5" /></radialGradient><radialGradient
       id="radialGradient284"
       spreadMethod="pad"
       gradientTransform="matrix(72.226227,-6.6040497,-8.0841217,-70.279602,380.5957,299.23633)"
       gradientUnits="userSpaceOnUse"
       r="1"
       cy="0"
       cx="0"
       fy="0"
       fx="0"><stop
         id="stop276"
         offset="0"
         style="stop-opacity:1;stop-color:#bce6fb" /><stop
         id="stop278"
         offset="0.282791"
         style="stop-opacity:1;stop-color:#70c3ee" /><stop
         id="stop280"
         offset="0.733612"
         style="stop-opacity:1;stop-color:#3265a5" /><stop
         id="stop282"
         offset="1"
         style="stop-opacity:1;stop-color:#354f70" /></radialGradient><linearGradient
       id="linearGradient320"
       spreadMethod="pad"
       gradientTransform="matrix(-49.322739,-310.38657,-252.04579,43.930893,343.39746,504.6748)"
       gradientUnits="userSpaceOnUse"
       y2="0"
       x2="1"
       y1="0"
       x1="0"><stop
         id="stop300"
         offset="0"
         style="stop-opacity:1;stop-color:#354f70" /><stop
         id="stop302"
         offset="0.00410461"
         style="stop-opacity:1;stop-color:#354f70" /><stop
         id="stop304"
         offset="0.143448"
         style="stop-opacity:1;stop-color:#3265a5" /><stop
         id="stop306"
         offset="0.254105"
         style="stop-opacity:1;stop-color:#70c3ee" /><stop
         id="stop308"
         offset="0.307373"
         style="stop-opacity:1;stop-color:#bce6fb" /><stop
         id="stop310"
         offset="0.46312"
         style="stop-opacity:1;stop-color:#ffffff" /><stop
         id="stop312"
         offset="0.618851"
         style="stop-opacity:1;stop-color:#bce6fb" /><stop
         id="stop314"
         offset="0.729507"
         style="stop-opacity:1;stop-color:#70c3ee" /><stop
         id="stop316"
         offset="0.840164"
         style="stop-opacity:1;stop-color:#3265a5" /><stop
         id="stop318"
         offset="1"
         style="stop-opacity:1;stop-color:#354f70" /></linearGradient><radialGradient
       id="radialGradient344"
       spreadMethod="pad"
       gradientTransform="matrix(201.70543,-34.744385,0.3941345,-212.19543,516.64746,287.70508)"
       gradientUnits="userSpaceOnUse"
       r="1"
       cy="0"
       cx="0"
       fy="0"
       fx="0"><stop
         id="stop336"
         offset="0"
         style="stop-opacity:1;stop-color:#bce6fb" /><stop
         id="stop338"
         offset="0.282791"
         style="stop-opacity:1;stop-color:#70c3ee" /><stop
         id="stop340"
         offset="0.733612"
         style="stop-opacity:1;stop-color:#3265a5" /><stop
         id="stop342"
         offset="1"
         style="stop-opacity:1;stop-color:#354f70" /></radialGradient><radialGradient
       id="radialGradient368"
       spreadMethod="pad"
       gradientTransform="matrix(241.63733,-22.094253,-27.045944,-235.12477,311.91016,227.93848)"
       gradientUnits="userSpaceOnUse"
       r="1"
       cy="0"
       cx="0"
       fy="0"
       fx="0"><stop
         id="stop360"
         offset="0"
         style="stop-opacity:1;stop-color:#bce6fb" /><stop
         id="stop362"
         offset="0.282791"
         style="stop-opacity:1;stop-color:#70c3ee" /><stop
         id="stop364"
         offset="0.733612"
         style="stop-opacity:1;stop-color:#3265a5" /><stop
         id="stop366"
         offset="1"
         style="stop-opacity:1;stop-color:#354f70" /></radialGradient><linearGradient
       id="linearGradient392"
       spreadMethod="pad"
       gradientTransform="matrix(-141.19315,-783.73364,-635.54431,131.28012,377.34863,640.96436)"
       gradientUnits="userSpaceOnUse"
       y2="0"
       x2="1"
       y1="0"
       x1="0"><stop
         id="stop384"
         offset="0"
         style="stop-opacity:1;stop-color:#ffffff" /><stop
         id="stop386"
         offset="0.0696716"
         style="stop-opacity:1;stop-color:#ffffff" /><stop
         id="stop388"
         offset="0.393448"
         style="stop-opacity:1;stop-color:#4792ce" /><stop
         id="stop390"
         offset="1"
         style="stop-opacity:1;stop-color:#354f70" /></linearGradient><radialGradient
       id="radialGradient420"
       spreadMethod="pad"
       gradientTransform="matrix(699.6665,-63.974396,-78.312149,-680.8092,342.92773,597.79004)"
       gradientUnits="userSpaceOnUse"
       r="1"
       cy="0"
       cx="0"
       fy="0"
       fx="0"><stop
         id="stop408"
         offset="0"
         style="stop-opacity:1;stop-color:#ffffff" /><stop
         id="stop410"
         offset="0.0696716"
         style="stop-opacity:1;stop-color:#ffffff" /><stop
         id="stop412"
         offset="0.311478"
         style="stop-opacity:1;stop-color:#bce6fb" /><stop
         id="stop414"
         offset="0.471313"
         style="stop-opacity:1;stop-color:#70c3ee" /><stop
         id="stop416"
         offset="0.733612"
         style="stop-opacity:1;stop-color:#3265a5" /><stop
         id="stop418"
         offset="1"
         style="stop-opacity:1;stop-color:#354f70" /></radialGradient><linearGradient
       id="linearGradient448"
       spreadMethod="pad"
       gradientTransform="matrix(-86.051468,202.26189,170.47243,115.83737,302.40332,296.64063)"
       gradientUnits="userSpaceOnUse"
       y2="0"
       x2="1"
       y1="0"
       x1="0"><stop
         id="stop436"
         offset="0"
         style="stop-opacity:1;stop-color:#ffffff" /><stop
         id="stop438"
         offset="0.0696716"
         style="stop-opacity:1;stop-color:#ffffff" /><stop
         id="stop440"
         offset="0.311478"
         style="stop-opacity:1;stop-color:#bce6fb" /><stop
         id="stop442"
         offset="0.471313"
         style="stop-opacity:1;stop-color:#70c3ee" /><stop
         id="stop444"
         offset="0.733612"
         style="stop-opacity:1;stop-color:#3265a5" /><stop
         id="stop446"
         offset="1"
         style="stop-opacity:1;stop-color:#354f70" /></linearGradient><linearGradient
       id="linearGradient472"
       spreadMethod="pad"
       gradientTransform="matrix(-425.00397,-446.37271,-343.81427,495.95459,583.86133,593.68945)"
       gradientUnits="userSpaceOnUse"
       y2="0"
       x2="1"
       y1="0"
       x1="0"><stop
         id="stop464"
         offset="0"
         style="stop-opacity:1;stop-color:#ffffff" /><stop
         id="stop466"
         offset="0.0696716"
         style="stop-opacity:1;stop-color:#ffffff" /><stop
         id="stop468"
         offset="0.393448"
         style="stop-opacity:1;stop-color:#4792ce" /><stop
         id="stop470"
         offset="1"
         style="stop-opacity:1;stop-color:#354f70" /></linearGradient><linearGradient
       id="linearGradient496"
       spreadMethod="pad"
       gradientTransform="matrix(-417.46619,-438.45593,-337.71643,487.15845,533.55762,664.06445)"
       gradientUnits="userSpaceOnUse"
       y2="0"
       x2="1"
       y1="0"
       x1="0"><stop
         id="stop488"
         offset="0"
         style="stop-opacity:1;stop-color:#ffffff" /><stop
         id="stop490"
         offset="0.0696716"
         style="stop-opacity:1;stop-color:#ffffff" /><stop
         id="stop492"
         offset="0.393448"
         style="stop-opacity:1;stop-color:#4792ce" /><stop
         id="stop494"
         offset="1"
         style="stop-opacity:1;stop-color:#354f70" /></linearGradient><radialGradient
       id="radialGradient520"
       spreadMethod="pad"
       gradientTransform="matrix(407.81946,-37.2892,-45.646347,-396.82797,339.01562,194.61035)"
       gradientUnits="userSpaceOnUse"
       r="1"
       cy="0"
       cx="0"
       fy="0"
       fx="0"><stop
         id="stop512"
         offset="0"
         style="stop-opacity:1;stop-color:#bce6fb" /><stop
         id="stop514"
         offset="0.282791"
         style="stop-opacity:1;stop-color:#70c3ee" /><stop
         id="stop516"
         offset="0.733612"
         style="stop-opacity:1;stop-color:#3265a5" /><stop
         id="stop518"
         offset="1"
         style="stop-opacity:1;stop-color:#354f70" /></radialGradient><radialGradient
       id="radialGradient544"
       spreadMethod="pad"
       gradientTransform="matrix(407.67816,-37.276276,-45.630524,-396.69049,339.05957,194.63086)"
       gradientUnits="userSpaceOnUse"
       r="1"
       cy="0"
       cx="0"
       fy="0"
       fx="0"><stop
         id="stop536"
         offset="0"
         style="stop-opacity:1;stop-color:#bce6fb" /><stop
         id="stop538"
         offset="0.282791"
         style="stop-opacity:1;stop-color:#70c3ee" /><stop
         id="stop540"
         offset="0.733612"
         style="stop-opacity:1;stop-color:#3265a5" /><stop
         id="stop542"
         offset="1"
         style="stop-opacity:1;stop-color:#354f70" /></radialGradient><clipPath
       id="clipPath554"
       clipPathUnits="userSpaceOnUse"><path
         id="path552"
         d="M 0,792 H 612 V 0 H 0 Z" /></clipPath><radialGradient
       id="radialGradient580"
       spreadMethod="pad"
       gradientTransform="matrix(368.50763,-187.73904,-38.719589,-215.87556,253.55127,223.84375)"
       gradientUnits="userSpaceOnUse"
       r="1"
       cy="0"
       cx="0"
       fy="0"
       fx="0"><stop
         id="stop572"
         offset="0"
         style="stop-opacity:1;stop-color:#bce6fb" /><stop
         id="stop574"
         offset="0.282791"
         style="stop-opacity:1;stop-color:#70c3ee" /><stop
         id="stop576"
         offset="0.733612"
         style="stop-opacity:1;stop-color:#3265a5" /><stop
         id="stop578"
         offset="1"
         style="stop-opacity:1;stop-color:#354f70" /></radialGradient><radialGradient
       id="radialGradient604"
       spreadMethod="pad"
       gradientTransform="matrix(262.50168,-179.72765,-83.758087,-188.58432,253.521,223.77832)"
       gradientUnits="userSpaceOnUse"
       r="1"
       cy="0"
       cx="0"
       fy="0"
       fx="0"><stop
         id="stop596"
         offset="0"
         style="stop-opacity:1;stop-color:#bce6fb" /><stop
         id="stop598"
         offset="0.282791"
         style="stop-opacity:1;stop-color:#70c3ee" /><stop
         id="stop600"
         offset="0.733612"
         style="stop-opacity:1;stop-color:#3265a5" /><stop
         id="stop602"
         offset="1"
         style="stop-opacity:1;stop-color:#354f70" /></radialGradient><clipPath
       id="clipPath614"
       clipPathUnits="userSpaceOnUse"><path
         id="path612"
         d="M 0,792 H 612 V 0 H 0 Z" /></clipPath><radialGradient
       id="radialGradient644"
       spreadMethod="pad"
       gradientTransform="matrix(123.33777,-11.277451,-13.804932,-120.01358,351.78125,243.69824)"
       gradientUnits="userSpaceOnUse"
       r="1"
       cy="0"
       cx="0"
       fy="0"
       fx="0"><stop
         id="stop632"
         offset="0"
         style="stop-opacity:1;stop-color:#ffffff" /><stop
         id="stop634"
         offset="0.0696716"
         style="stop-opacity:1;stop-color:#ffffff" /><stop
         id="stop636"
         offset="0.311478"
         style="stop-opacity:1;stop-color:#bce6fb" /><stop
         id="stop638"
         offset="0.471313"
         style="stop-opacity:1;stop-color:#70c3ee" /><stop
         id="stop640"
         offset="0.733612"
         style="stop-opacity:1;stop-color:#3265a5" /><stop
         id="stop642"
         offset="1"
         style="stop-opacity:1;stop-color:#354f70" /></radialGradient><radialGradient
       id="radialGradient672"
       spreadMethod="pad"
       gradientTransform="matrix(123.32022,-11.275848,-13.802963,-119.99651,351.79102,243.69141)"
       gradientUnits="userSpaceOnUse"
       r="1"
       cy="0"
       cx="0"
       fy="0"
       fx="0"><stop
         id="stop660"
         offset="0"
         style="stop-opacity:1;stop-color:#ffffff" /><stop
         id="stop662"
         offset="0.0696716"
         style="stop-opacity:1;stop-color:#ffffff" /><stop
         id="stop664"
         offset="0.311478"
         style="stop-opacity:1;stop-color:#bce6fb" /><stop
         id="stop666"
         offset="0.471313"
         style="stop-opacity:1;stop-color:#70c3ee" /><stop
         id="stop668"
         offset="0.733612"
         style="stop-opacity:1;stop-color:#3265a5" /><stop
         id="stop670"
         offset="1"
         style="stop-opacity:1;stop-color:#354f70" /></radialGradient></defs><g
     transform="matrix(1.3333333,0,0,-1.3333333,0,1056)"
     id="g10"><g
       id="g12"><g
         id="g14"><g
           id="g20"><g
             id="g22"><path
               id="path52"
               style="fill:url(#radialGradient50);stroke:none"
               d="M 83.212,415.257 C 83.435,290.75 179.549,173.305 297.905,152.92 v 0 c 118.337,-20.388 214.094,64.019 213.878,188.518 v 0 c -0.225,124.509 -96.347,241.96 -214.689,262.338 v 0 c -11.883,2.046 -23.525,3.036 -34.878,3.036 v 0 C 160.495,606.805 83.007,527.25 83.212,415.257" /></g></g></g></g><g
       id="g54"><g
         id="g56"><g
           id="g62"><g
             id="g64"><path
               id="path94"
               style="fill:url(#linearGradient92);stroke:none"
               d="M 92.181,422.357 C 92.406,297.87 188.521,180.415 306.876,160.028 v 0 c 118.352,-20.378 214.109,64.046 213.876,188.537 v 0 C 520.534,473.059 424.41,590.509 306.059,610.893 v 0 c -11.881,2.047 -23.526,3.037 -34.878,3.037 v 0 C 169.465,613.925 91.975,534.367 92.181,422.357" /></g></g></g></g><g
       id="g96"><g
         id="g98"><g
           id="g104"><g
             id="g106"><path
               id="path136"
               style="fill:url(#radialGradient134);stroke:none"
               d="m 103.118,427.767 c 0.23,-124.499 96.353,-241.96 214.696,-262.35 v 0 c 118.345,-20.373 214.112,64.044 213.876,188.539 v 0 c -0.215,124.496 -96.341,241.946 -214.685,262.329 v 0 c -11.882,2.046 -23.524,3.036 -34.877,3.036 v 0 C 180.411,619.314 102.922,539.764 103.118,427.767" /></g></g></g></g><g
       id="g138"><g
         id="g140"><g
           id="g146"><g
             id="g148"><path
               id="path178"
               style="fill:url(#radialGradient176);stroke:none"
               d="m 113.558,426.931 c 0.219,-119.033 92.104,-231.303 205.238,-250.778 v 0 c 113.135,-19.483 204.669,61.186 204.453,180.209 v 0 C 523.046,475.385 431.15,587.66 318.017,607.14 v 0 c -11.359,1.957 -22.493,2.904 -33.346,2.903 v 0 C 187.433,610.039 113.366,533.99 113.558,426.931" /></g></g></g></g><g
       id="g180"><g
         id="g182"><g
           id="g188"><g
             id="g190"><path
               id="path220"
               style="fill:url(#linearGradient218);stroke:none"
               d="m 117.547,430.087 c 0.219,-119.015 92.101,-231.298 205.238,-250.772 v 0 c 113.134,-19.489 204.672,61.201 204.452,180.212 v 0 c -0.218,119.004 -92.091,231.296 -205.23,250.783 v 0 c -11.359,1.956 -22.492,2.903 -33.344,2.903 v 0 C 191.426,613.208 117.355,537.16 117.547,430.087" /></g></g></g></g><g
       id="g222"><g
         id="g224"><g
           id="g230"><g
             id="g232"><path
               id="path262"
               style="fill:url(#radialGradient260);stroke:none"
               d="m 390.436,280.442 c -7.958,-5.7 -12.118,-8.939 -12.118,-8.939 v 0 c 0,0 17.948,-22.046 64.379,-50.114 v 0 c 10.339,35.971 -5.945,99.17 -5.945,99.17 v 0 L 234.135,446.307 c 0,0 49.381,-87.359 156.301,-165.865" /></g></g></g></g><g
       id="g264"><g
         id="g266"><g
           id="g272"><g
             id="g274"><path
               id="path286"
               style="fill:url(#radialGradient284);stroke:none"
               d="m 229.905,442.289 187.39,-142.633 -26.859,-19.214 53.149,-59.134 25.953,80.969 -168.732,168.074 z" /></g></g></g></g><g
       id="g288"><g
         id="g290"><g
           id="g296"><g
             id="g298"><path
               id="path322"
               style="fill:url(#linearGradient320);stroke:none"
               d="m 192.139,564.424 c -74.068,-65.283 -73.838,-191.856 0.503,-282.696 v 0 c 54.203,-66.224 132.83,-95.176 200.159,-80.719 v 0 c 0,0 3.801,3.188 6.779,3.796 v 0 c -0.18,8.017 -7.95,25.28 -12.829,36.466 v 0 c -8.073,18.516 -16.014,24.425 -16.014,24.425 v 0 l -41.335,-29.962 c 0,0 -11.649,54.034 -39.963,108.004 v 0 c -25.691,48.935 -60.951,98.184 -60.951,98.184 v 0 l 0.52,0.45 c 0,0 71.545,-10.935 130.964,-50.828 v 0 c 59.415,-39.879 83.391,-71.479 83.391,-71.479 v 0 l -40.987,-28.727 c 0,0 11.412,-12.138 22.8,-32.6 v 0 c 11.396,-20.481 17.521,-37.349 17.521,-37.349 v 0 c 6.477,4.144 12.723,8.822 18.66,14.051 v 0 c 74.082,65.291 73.849,191.855 -0.495,282.699 v 0 c -45.066,55.065 -107.02,84.364 -165.324,84.365 v 0 c -37.885,0 -74.228,-12.37 -103.399,-38.08" /></g></g></g></g><g
       id="g324"><g
         id="g326"><g
           id="g332"><g
             id="g334"><path
               id="path346"
               style="fill:url(#radialGradient344);stroke:none"
               d="M 198.916,568.211 C 124.854,502.928 125.077,376.361 199.427,285.5 v 0 c 54.197,-66.223 132.828,-95.162 200.153,-80.695 v 0 c 0,0 -1.784,11.428 -9.851,29.965 v 0 c -8.076,18.521 -15.944,28.974 -15.944,28.974 v 0 l -41.329,-29.956 c 0,0 -7.917,59.783 -36.238,113.735 v 0 c -25.693,48.939 -60.945,98.185 -60.945,98.185 v 0 l 0.511,0.457 c 0,0 71.557,-10.942 130.969,-50.824 v 0 c 59.417,-39.885 85.886,-73.477 85.886,-73.477 v 0 L 411.65,293.123 c 0,0 8.915,-10.146 20.308,-30.609 v 0 c 11.398,-20.459 17.509,-37.345 17.509,-37.345 v 0 c 6.486,4.15 12.738,8.821 18.683,14.071 v 0 c 74.058,65.271 73.825,191.845 -0.502,282.693 v 0 c -45.066,55.057 -107.029,84.355 -165.329,84.36 v 0 c -37.892,0.004 -74.228,-12.367 -103.403,-38.082" /></g></g></g></g><g
       id="g348"><g
         id="g350"><g
           id="g356"><g
             id="g358"><path
               id="path370"
               style="fill:url(#radialGradient368);stroke:none"
               d="M 198.916,568.211 C 124.854,502.928 125.077,376.361 199.427,285.5 v 0 c 54.197,-66.223 132.828,-95.162 200.153,-80.695 v 0 c 0,0 -1.784,11.428 -9.851,29.965 v 0 c -8.076,18.521 -15.944,28.974 -15.944,28.974 v 0 l -41.329,-29.956 c 0,0 -7.917,59.783 -36.238,113.735 v 0 c -25.693,48.939 -60.945,98.185 -60.945,98.185 v 0 l 0.511,0.457 c 0,0 71.557,-10.942 130.969,-50.824 v 0 c 59.417,-39.885 85.886,-73.477 85.886,-73.477 v 0 L 411.65,293.123 c 0,0 8.915,-10.146 20.308,-30.609 v 0 c 11.398,-20.459 17.509,-37.345 17.509,-37.345 v 0 c 6.486,4.15 12.738,8.821 18.683,14.071 v 0 c 74.058,65.271 73.825,191.845 -0.502,282.693 v 0 c -45.066,55.057 -107.029,84.355 -165.329,84.36 v 0 c -37.892,0.004 -74.228,-12.367 -103.403,-38.082" /></g></g></g></g><g
       id="g372"><g
         id="g374"><g
           id="g380"><g
             id="g382"><path
               id="path394"
               style="fill:url(#linearGradient392);stroke:none"
               d="M 297.719,598.819 C 232.872,598.237 180.758,561.418 162.83,504.981 v 0 c -4.356,-13.72 -6.695,-28.613 -6.702,-44.421 v 0 c -0.019,-40.823 15.775,-77.203 39.996,-85.967 v 0 c 36.781,-13.305 54.681,0.103 68.221,23.998 v 0 c -16.666,27.211 -30.709,47.266 -30.709,47.266 v 0 l 0.499,0.45 c 0,0 19.607,-3.025 46.667,-11.747 v 0 c 11.223,26.941 24.05,56.649 48.977,77.432 v 0 c 19.066,12.047 40.538,16.67 64.178,12.565 v 0 c 30.367,-7.329 46.993,-21.78 68.713,-51.359 v 0 c 39.907,-62.375 49.256,-136.012 28.028,-195.543 v 0 c 42.61,66.573 33.457,165.86 -27.419,240.229 v 0 c -43.316,52.928 -102.849,81.069 -158.88,81.07 v 0 c -2.234,0 -4.459,-0.045 -6.68,-0.135" /></g></g></g></g><g
       id="g396"><g
         id="g398"><g
           id="g404"><g
             id="g406"><path
               id="path422"
               style="fill:url(#radialGradient420);stroke:none"
               d="m 445.294,234.078 c -0.371,0.949 -0.932,2.361 -1.683,4.191 v 0 z" /></g></g></g></g><g
       id="g424"><g
         id="g426"><g
           id="g432"><g
             id="g434"><path
               id="path450"
               style="fill:url(#linearGradient448);stroke:none"
               d="m 233.636,445.857 c 0,0 10.386,-14.841 23.905,-36.308 v 0 l 0.225,0.214 c 0,0 0.678,-0.117 1.937,-0.341 v 0 c -13.817,21.459 -24.43,36.286 -24.43,36.286 v 0 l 0.388,0.341 c -0.992,0.18 -1.526,0.258 -1.526,0.258 v 0 z" /></g></g></g></g><g
       id="g452"><g
         id="g454"><g
           id="g460"><g
             id="g462"><path
               id="path474"
               style="fill:url(#linearGradient472);stroke:none"
               d="M 346.286,502.507 C 322.508,492.056 303.539,454.262 291.62,431.335 v 0 c 6.554,-2.158 9.656,-3.084 16.803,-5.9 v 0 c 7.331,14.507 16.484,28.501 29.678,39.484 v 0 c 16.023,10.125 34.062,14.017 53.914,10.572 v 0 c 25.513,-6.167 47.639,-18.17 65.887,-43.019 v 0 c 20.31,-31.741 32.133,-65.748 34.098,-99.067 v 0 c 4.431,60.931 -24.772,110.703 -29.937,118.792 v 0 c -28.575,44.752 -56.881,58.178 -81.634,58.179 v 0 c -12.413,0 -23.93,-3.375 -34.143,-7.869" /></g></g></g></g><g
       id="g476"><g
         id="g478"><g
           id="g484"><g
             id="g486"><path
               id="path498"
               style="fill:url(#linearGradient496);stroke:none"
               d="m 248.226,358.96 c -10.774,-5.774 -24.976,-3.232 -37.109,1.132 v 0 c 4.322,-4.936 9.259,-8.602 14.72,-10.572 v 0 c 30.897,-11.186 45.93,0.087 57.304,20.173 v 0 c -5.126,8.337 -6.881,9.527 -10.947,15.747 v 0 c -7.008,-16.07 -16.329,-22.386 -23.968,-26.48" /></g></g></g></g><g
       id="g500"><g
         id="g502"><g
           id="g508"><g
             id="g510"><path
               id="path522"
               style="fill:url(#radialGradient520);stroke:none"
               d="M 480.844,286.529 C 470.969,273.247 457.477,263.49 443.559,255.34 v 0 c 3.895,-7.121 5.649,-11.707 7.984,-19.236 v 0 c 17.091,15.08 27.315,36.279 34.685,58.098 v 0 c -1.369,-2.119 -3.112,-4.614 -5.384,-7.673" /></g></g></g></g><g
       id="g524"><g
         id="g526"><g
           id="g532"><g
             id="g534"><path
               id="path546"
               style="fill:url(#radialGradient544);stroke:none"
               d="m 208.568,277.956 c 49.002,-59.883 120.095,-86.035 180.981,-72.969 v 0 c 0,0 -1.62,10.356 -8.922,27.1 v 0 c -0.331,0.781 -0.674,1.537 -1.008,2.287 v 0 c -10.508,-1.23 -17.798,-1.717 -28.604,-1.086 v 0 c -3.657,-3.798 -15.522,-10.895 -20.065,-14.304 v 0 l -2.104,12.228 c 0,0 -0.209,1.55 -0.67,4.383 v 0 c -33.648,5.369 -67.235,19.672 -96.522,43.044 v 0 c -27.034,21.56 -46.925,48.093 -59.162,76.377 v 0 c -7.503,13.822 -11.181,23.894 -11.181,23.894 v 0 c 6.405,-35.11 22.153,-70.284 47.257,-100.954" /></g></g></g></g><g
       id="g548"><g
         clip-path="url(#clipPath554)"
         id="g550"><g
           transform="translate(362.334,548.2603)"
           id="g556"><path
             id="path558"
             style="fill:#ffffff;fill-opacity:1;fill-rule:nonzero;stroke:none"
             d="m 0,0 c -3.614,-10.106 -19.504,-14.147 -35.504,-9.008 -16.008,5.135 -26.051,17.502 -22.444,27.62 3.608,10.114 19.506,14.149 35.504,9.009 C -6.438,22.49 3.606,10.132 0,0" /></g></g></g><g
       id="g560"><g
         id="g562"><g
           id="g568"><g
             id="g570"><path
               id="path582"
               style="fill:url(#radialGradient580);stroke:none"
               d="m 243.296,287.223 c -2.392,-3.381 4.469,-11.904 15.325,-19.051 v 0 c 10.853,-7.153 21.593,-10.212 23.982,-6.824 v 0 c 2.393,3.382 -4.461,11.904 -15.314,19.061 v 0 c -7.849,5.171 -15.633,8.201 -20.252,8.201 v 0 c -1.77,-0.001 -3.076,-0.446 -3.741,-1.387" /></g></g></g></g><g
       id="g584"><g
         id="g586"><g
           id="g592"><g
             id="g594"><path
               id="path606"
               style="fill:url(#radialGradient604);stroke:none"
               d="m 215.764,309.333 c -1.51,-1.561 0.476,-5.751 4.436,-9.383 v 0 c 3.965,-3.618 8.402,-5.299 9.915,-3.728 v 0 c 1.506,1.543 -0.483,5.74 -4.435,9.376 v 0 c -2.962,2.699 -6.178,4.319 -8.252,4.319 v 0 c -0.705,0 -1.278,-0.188 -1.664,-0.584" /></g></g></g></g><g
       id="g608"><g
         clip-path="url(#clipPath614)"
         id="g610"><g
           transform="translate(222.6934,529.1123)"
           id="g616"><path
             id="path618"
             style="fill:#ffffff;fill-opacity:1;fill-rule:nonzero;stroke:none"
             d="m 0,0 c -4.483,-5.046 -10.079,-7.506 -12.508,-5.485 -2.427,2.028 -0.754,7.756 3.728,12.801 4.474,5.05 10.08,7.51 12.5,5.481 C 6.154,10.785 4.48,5.052 0,0" /></g></g></g><g
       id="g620"><g
         id="g622"><g
           id="g628"><g
             id="g630"><path
               id="path646"
               style="fill:url(#radialGradient644);stroke:none"
               d="m 231.577,445.154 c 0,0 35.262,-49.225 60.945,-98.179 v 0 c 28.329,-53.947 36.246,-113.714 36.246,-113.714 v 0 l 3.408,2.464 c -1.623,10.626 -10.629,63.523 -35.958,111.798 v 0 c -23.87,45.491 -56.002,91.205 -60.431,97.446 v 0 c -2.386,0.438 -3.686,0.644 -3.686,0.644 v 0 z" /></g></g></g></g><g
       id="g648"><g
         id="g650"><g
           id="g656"><g
             id="g658"><path
               id="path674"
               style="fill:url(#radialGradient672);stroke:none"
               d="m 371.104,261.797 c 2.363,-3.422 8.574,-12.999 14.929,-27.58 v 0 c 8.073,-18.5 9.859,-29.956 9.859,-29.956 v 0 c -2.827,-0.604 -5.683,-1.135 -8.547,-1.593 v 0 c 4.114,0.565 8.195,1.258 12.235,2.137 v 0 c 0,0 -1.784,11.428 -9.851,29.965 v 0 c -8.076,18.521 -15.944,28.974 -15.944,28.974 v 0 z" /></g></g></g></g></g></svg>